<svg width="1165" height="371" viewBox="0 0 1165 371" fill="none" xmlns="http://www.w3.org/2000/svg">
<g filter="url(#filter0_d_425_129)">
<path d="M1158.5 221.624C1158.5 224.334 1149.14 236.851 1130.43 259.175C1115.08 277.498 1103.01 286.66 1094.24 286.66C1088.43 286.66 1083.53 284.402 1079.53 279.885C1075.66 275.369 1073.72 269.82 1073.72 263.239C1073.72 257.433 1074.88 252.078 1077.21 247.174C1079.66 242.142 1085.92 232.27 1095.98 217.56C1106.43 202.075 1111.66 192.204 1111.66 187.945C1111.66 182.655 1108.88 180.009 1103.34 180.009C1084.5 180.009 1055.46 214.979 1016.23 284.918C1009.91 284.402 1006.11 284.144 1004.81 284.144C1000.3 284.144 996.04 284.402 992.04 284.918L1022.24 237.109C1039.4 209.753 1047.98 192.655 1047.98 185.816C1047.98 181.945 1046.37 180.009 1043.14 180.009C1036.56 180.009 1023.59 193.881 1004.23 221.624C1003.07 223.302 1002.17 224.205 1001.52 224.334C1000.88 224.334 1000.49 223.947 1000.36 223.173C1000.49 222.528 1000.75 222.011 1001.14 221.624L1004.81 216.785C1024.56 190.332 1037.85 177.106 1044.69 177.106C1049.08 177.106 1052.82 179.106 1055.91 183.106C1059.01 187.106 1060.56 191.881 1060.56 197.43C1060.56 205.688 1055.72 217.173 1046.04 231.883C1061.27 210.85 1072.95 196.462 1081.08 188.719C1089.34 180.977 1096.95 177.106 1103.92 177.106C1109.59 177.106 1114.37 179.429 1118.24 184.074C1122.11 188.719 1124.05 194.462 1124.05 201.301C1124.05 209.946 1118.11 223.173 1106.24 240.98C1094.11 259.175 1088.04 270.788 1088.04 275.821C1088.04 281.111 1090.69 283.757 1095.98 283.757C1107.47 283.757 1127.27 263.304 1155.4 222.399C1156.05 221.108 1156.69 220.463 1157.34 220.463C1158.11 220.463 1158.5 220.85 1158.5 221.624Z" fill="white"/>
</g>
<g filter="url(#filter1_d_425_129)">
<path d="M1003.46 221.624C1003.46 222.011 1002.3 223.689 999.976 226.657L991.653 237.109C964.942 270.143 942.037 286.66 922.94 286.66C913.907 286.66 906.294 283.434 900.1 276.982C894.035 270.401 891.003 262.207 891.003 252.4C891.003 229.173 907.197 208.72 939.586 191.042C956.619 181.751 970.49 177.106 981.201 177.106C985.846 177.106 989.782 178.525 993.008 181.364C996.363 184.074 998.04 187.429 998.04 191.429C998.04 200.72 991.975 208.656 979.846 215.237C967.716 221.689 947.457 227.754 919.068 233.431C910.294 246.722 905.906 257.82 905.906 266.723C905.906 277.821 911.907 283.369 923.907 283.369C944.296 283.369 969.265 263.433 998.814 223.56C1000.36 221.495 1001.65 220.463 1002.69 220.463C1003.2 220.592 1003.46 220.979 1003.46 221.624ZM987.201 185.816C987.201 181.687 984.943 179.622 980.426 179.622C973.587 179.622 964.555 184.397 953.328 193.946C942.231 203.365 931.327 215.624 920.617 230.722C939.199 225.947 954.941 219.237 967.845 210.592C980.749 201.817 987.201 193.558 987.201 185.816Z" fill="white"/>
</g>
<g filter="url(#filter2_d_425_129)">
<path d="M945.005 86.3269C896.616 163.234 866.098 212.398 853.452 233.818C840.677 255.626 834.29 269.368 834.29 275.046C834.29 280.853 836.935 283.756 842.226 283.756C853.968 283.756 873.905 263.304 902.035 222.398C902.81 221.108 903.519 220.463 904.164 220.463C904.939 220.463 905.326 220.85 905.326 221.624C905.197 222.011 904.552 223.044 903.39 224.721L895.067 236.141C870.679 269.82 852.678 286.66 841.064 286.66C835.129 286.66 830.29 284.466 826.548 280.079C822.805 275.562 820.934 269.82 820.934 262.852C820.934 255.884 823.257 247.819 827.902 238.657C805.321 270.659 788.546 286.66 777.577 286.66C770.738 286.66 764.996 283.756 760.351 277.95C755.705 272.014 753.383 264.594 753.383 255.69C753.383 234.399 766.609 215.108 793.062 197.816C814.095 184.009 830.612 177.106 842.613 177.106C850.613 177.106 854.614 180.977 854.614 188.719C854.614 192.332 853.517 196.397 851.323 200.913L920.423 85.1655C924.682 86.4559 928.875 87.1011 933.005 87.1011C934.037 87.1011 938.037 86.843 945.005 86.3269ZM851.71 190.268C851.71 183.429 848.549 180.009 842.226 180.009C830.612 180.009 815.257 191.623 796.159 214.85C777.19 237.948 767.706 256.594 767.706 270.788C767.706 279.433 771.254 283.756 778.352 283.756C788.675 283.756 806.418 265.82 831.58 229.947C845 210.591 851.71 197.365 851.71 190.268Z" fill="white"/>
</g>
<g filter="url(#filter3_d_425_129)">
<path d="M769.254 221.624C769.254 222.657 765.383 227.367 757.641 235.754C747.834 246.593 738.608 252.013 729.962 252.013C720.155 252.013 715.252 246.335 715.252 234.98C715.252 231.367 716.026 226.786 717.574 221.237C709.445 228.334 702.799 235.367 697.638 242.335C692.605 249.303 683.831 263.497 671.314 284.918C664.475 284.402 660.475 284.144 659.313 284.144C658.797 284.144 654.861 284.402 647.506 284.918L679.25 233.431C695.122 207.624 703.057 191.623 703.057 185.429C703.057 181.816 701.573 180.009 698.606 180.009C691.379 180.009 678.282 193.881 659.313 221.624C658.152 223.431 657.12 224.334 656.216 224.334C655.7 224.205 655.442 223.818 655.442 223.173C655.571 222.528 655.829 222.011 656.216 221.624L659.7 216.785C679.572 190.332 693.057 177.106 700.154 177.106C710.477 177.106 715.639 183.751 715.639 197.042C715.639 206.978 710.348 220.14 699.767 236.528C706.477 228.786 712.864 222.463 718.929 217.56C723.833 206.075 729.898 196.462 737.124 188.719C744.479 180.977 751.06 177.106 756.867 177.106C760.867 177.106 762.867 178.848 762.867 182.332C762.867 188.526 753.899 197.365 735.962 208.85C733.123 210.656 728.865 213.301 723.187 216.785L720.865 218.721C719.058 224.657 718.155 229.56 718.155 233.431C718.155 244.271 722.22 249.69 730.349 249.69C740.414 249.69 751.382 241.367 763.254 224.721C765.835 221.882 767.448 220.463 768.093 220.463C768.867 220.463 769.254 220.85 769.254 221.624Z" fill="white"/>
</g>
<g filter="url(#filter4_d_425_129)">
<path d="M658.346 221.624C658.346 224.334 648.926 236.851 630.086 259.175C614.859 277.498 602.859 286.66 594.084 286.66C588.148 286.66 583.309 284.466 579.567 280.079C575.825 275.563 573.954 269.949 573.954 263.239C573.954 256.271 576.019 248.723 580.148 240.593C567.244 258.658 557.373 270.853 550.534 277.176C543.695 283.498 537.049 286.66 530.597 286.66C523.758 286.66 518.016 283.757 513.37 277.95C508.725 272.014 506.402 264.594 506.402 255.691C506.402 230.915 523.887 208.979 558.857 189.881C574.212 181.364 586.6 177.106 596.02 177.106C604.02 177.106 608.02 180.977 608.02 188.719C608.02 190.913 607.504 193.816 606.472 197.43L616.343 178.654C620.215 179.558 623.634 180.009 626.602 180.009C630.086 180.009 634.602 179.558 640.151 178.654L605.891 235.367C594.02 255.239 588.084 268.336 588.084 274.659C588.084 280.724 590.6 283.757 595.633 283.757C600.794 283.757 609.053 277.885 620.408 266.143C631.764 254.271 643.313 239.69 655.055 222.399C655.829 221.108 656.539 220.463 657.184 220.463C657.958 220.463 658.346 220.85 658.346 221.624ZM605.117 189.494C605.117 183.171 602.214 180.009 596.407 180.009C584.535 180.009 568.922 191.623 549.566 214.85C530.339 238.077 520.726 256.852 520.726 271.175C520.726 279.563 524.468 283.757 531.952 283.757C540.856 283.757 556.276 268.982 578.212 239.432C596.149 215.172 605.117 198.526 605.117 189.494Z" fill="white"/>
</g>
<g filter="url(#filter5_d_425_129)">
<path d="M556.34 102.973C556.34 106.199 551.308 113.748 541.243 125.619C531.307 137.362 521.242 147.556 511.048 156.202C501.886 170.912 495.176 183.106 490.918 192.784C486.659 202.333 481.369 217.495 475.046 238.27C467.174 263.562 457.432 283.627 445.818 298.467C434.334 313.306 418.14 326.533 397.235 338.146C367.298 354.792 336.652 363.115 305.295 363.115C278.713 363.115 257.228 355.889 240.84 341.437C224.452 326.984 216.258 308.016 216.258 284.531C216.258 264.53 222.452 245.561 234.84 227.624C247.228 209.559 264.132 194.978 285.552 183.88C307.102 172.783 327.038 167.234 345.362 167.234C346.91 167.234 348.265 167.363 349.426 167.621C349.426 164.395 350.33 158.718 352.136 150.588C349.814 150.846 347.039 150.975 343.813 150.975C323.038 150.975 306.457 146.395 294.069 137.233C281.81 128.071 275.681 115.877 275.681 100.65C275.681 74.3264 290.585 50.9703 320.393 30.5822C350.201 10.1941 384.461 0 423.172 0C453.883 0 478.981 7.67781 498.466 23.0334C512.015 18.0009 522.016 15.4847 528.468 15.4847C540.985 15.4847 547.243 20.6462 547.243 30.9693C547.243 40.5182 539.952 52.3898 525.371 66.584C526.403 73.6812 526.919 79.617 526.919 84.3914C526.919 98.3276 522.855 113.232 514.725 129.103C512.273 133.878 510.531 136.265 509.499 136.265C508.854 136.265 508.467 135.878 508.338 135.104C508.467 134.458 508.725 133.813 509.112 133.168C518.661 117.425 523.435 100.908 523.435 83.6172C523.435 78.3266 523.177 73.4231 522.661 68.9067C501.112 87.8754 477.046 104.457 450.464 118.651C424.011 132.716 398.784 142.459 374.783 147.878C370.653 154.589 367.492 161.557 365.298 168.783C399.365 174.59 416.398 193.107 416.398 224.334V228.205C442.076 221.237 473.626 195.752 511.048 151.75C519.435 138.588 528.016 126.974 536.791 116.909C545.565 106.844 551.566 101.812 554.792 101.812C555.566 101.812 556.082 102.199 556.34 102.973ZM543.565 31.3564C543.565 22.8399 538.662 18.5816 528.855 18.5816C521.371 18.5816 512.403 21.0978 501.95 26.1304C513.048 35.6792 520.596 47.9379 524.597 62.9064C537.242 50.6477 543.565 40.1311 543.565 31.3564ZM521.887 65.4227C518.532 50.0671 510.854 37.3567 498.853 27.2917C475.755 38.7762 452.787 55.4867 429.947 77.4233C407.107 99.2309 389.364 121.49 376.718 144.201C399.687 138.781 424.334 128.974 450.657 114.78C477.11 100.457 500.854 84.0043 521.887 65.4227ZM494.789 24.1948C477.627 10.6457 454.012 3.87116 423.946 3.87116C387.686 3.87116 354.459 13.9362 324.264 34.0663C294.198 54.0673 279.165 76.1329 279.165 100.263C279.165 115.103 285.101 126.716 296.972 135.104C308.844 143.362 325.361 147.491 346.523 147.491H353.298C368.395 98.0695 415.559 56.9706 494.789 24.1948ZM413.107 229.173C414.01 213.817 410.204 201.172 401.687 191.236C393.171 181.171 380.912 174.783 364.911 172.073C362.976 178.654 362.008 185.235 362.008 191.816C362.008 203.301 365.685 212.527 373.041 219.495C380.525 226.463 390.332 229.947 402.461 229.947C406.204 229.947 409.752 229.689 413.107 229.173ZM504.273 164.137C469.562 202.72 440.012 225.302 415.623 231.883C413.043 249.561 404.72 265.691 390.654 280.272C376.718 294.725 362.588 301.951 348.265 301.951C340.652 301.951 334.264 299.628 329.103 294.983C324.07 290.337 321.554 284.595 321.554 277.756C321.554 270.659 323.941 264.272 328.716 258.594C333.619 252.916 339.039 250.077 344.975 250.077C354.007 250.077 358.524 254.206 358.524 262.465C358.524 266.207 357.04 269.562 354.072 272.53C351.104 275.498 347.813 276.982 344.2 276.982C337.361 276.982 333.942 273.949 333.942 267.885C333.942 266.981 334.2 265.562 334.716 263.626C334.974 262.594 335.103 261.626 335.103 260.723C335.103 259.949 334.716 259.562 333.942 259.562C332.006 259.562 330.071 261.691 328.135 265.949C326.199 270.078 325.232 274.014 325.232 277.756C325.232 283.821 327.425 288.853 331.813 292.854C336.2 296.854 341.684 298.854 348.265 298.854C361.427 298.854 374.912 291.692 388.719 277.369C402.655 263.046 410.526 248.142 412.333 232.657C409.494 233.173 406.204 233.431 402.461 233.431C385.944 233.431 372.912 227.883 363.363 216.785C353.814 205.559 349.039 190.397 349.039 171.299C316.522 173.364 288.069 186.913 263.68 211.946C239.421 236.851 227.291 264.917 227.291 296.144C227.291 314.855 234.195 330.017 248.002 341.63C261.938 353.244 280.133 359.051 302.585 359.051C333.039 359.051 360.717 348.276 385.622 326.726C410.526 305.177 439.431 266.981 472.336 212.14C482.401 195.107 493.047 179.106 504.273 164.137Z" fill="white"/>
</g>
<g filter="url(#filter6_d_425_129)">
<path d="M187.76 130.526C187.709 140.997 190.25 149.211 195.383 155.165C200.516 161.12 206.548 164.097 213.478 164.097C218.097 164.097 222.101 162.839 225.489 160.324C228.929 157.757 231.803 153.394 234.113 147.234L236.5 148.774C235.422 155.807 232.291 162.223 227.106 168.024C221.922 173.773 215.428 176.648 207.626 176.648C199.156 176.648 191.892 173.362 185.835 166.792C179.829 160.17 176.826 151.289 176.826 140.15C176.826 128.087 179.906 118.693 186.066 111.969C192.277 105.193 200.054 101.805 209.397 101.805C217.302 101.805 223.795 104.423 228.877 109.659C233.959 114.844 236.5 121.799 236.5 130.526H187.76ZM187.76 126.06H220.407C220.151 121.542 219.612 118.36 218.79 116.512C217.507 113.637 215.582 111.379 213.016 109.736C210.5 108.093 207.857 107.272 205.085 107.272C200.824 107.272 197 108.94 193.612 112.277C190.275 115.562 188.325 120.156 187.76 126.06Z" fill="white"/>
</g>
<g filter="url(#filter7_d_425_129)">
<path d="M117.769 65V116.589C123.466 110.326 127.984 106.322 131.32 104.577C134.657 102.781 137.993 101.882 141.33 101.882C145.334 101.882 148.773 102.986 151.648 105.193C154.522 107.4 156.653 110.865 158.039 115.588C159.014 118.873 159.502 124.879 159.502 133.606V158.553C159.502 163.019 159.861 166.073 160.58 167.716C161.093 168.948 161.966 169.923 163.198 170.642C164.43 171.36 166.688 171.72 169.973 171.72V174.492H135.324V171.72H136.941C140.226 171.72 142.511 171.232 143.794 170.257C145.077 169.23 145.976 167.742 146.489 165.791C146.643 164.97 146.72 162.557 146.72 158.553V133.606C146.72 125.906 146.309 120.849 145.488 118.437C144.718 116.024 143.46 114.228 141.715 113.047C139.97 111.815 137.865 111.199 135.401 111.199C132.886 111.199 130.268 111.866 127.547 113.201C124.827 114.536 121.567 117.231 117.769 121.286V158.553C117.769 163.378 118.025 166.381 118.538 167.562C119.103 168.742 120.104 169.743 121.541 170.565C123.03 171.335 125.571 171.72 129.164 171.72V174.492H94.207V171.72C97.3383 171.72 99.8022 171.232 101.599 170.257C102.625 169.743 103.447 168.768 104.063 167.331C104.679 165.894 104.987 162.968 104.987 158.553V94.7214C104.987 86.6622 104.781 81.7087 104.371 79.8607C104.011 78.0127 103.421 76.7551 102.6 76.0878C101.83 75.4204 100.778 75.0868 99.4429 75.0868C98.3649 75.0868 96.6196 75.4974 94.207 76.3188L93.129 73.6238L114.227 65H117.769Z" fill="white"/>
</g>
<g filter="url(#filter8_d_425_129)">
<path d="M86.9692 70.0815L88.1242 94.567H85.1982C84.6336 90.2551 83.8636 87.1752 82.8883 85.3272C81.297 82.35 79.1667 80.1683 76.4974 78.7824C73.8795 77.3451 70.4145 76.6264 66.1026 76.6264H51.3959V156.397C51.3959 162.813 52.0889 166.817 53.4749 168.408C55.4255 170.564 58.4285 171.642 62.4837 171.642H66.1026V174.491H21.8286V171.642H25.5245C29.939 171.642 33.0703 170.308 34.9183 167.639C36.0476 165.996 36.6122 162.249 36.6122 156.397V76.6264H24.0615C19.1849 76.6264 15.72 76.9857 13.6667 77.7044C10.9974 78.6797 8.71316 80.5533 6.81387 83.3253C4.91457 86.0972 3.78526 89.8445 3.42594 94.567H0.5L1.73197 70.0815H86.9692Z" fill="white"/>
</g>
<defs>
<filter id="filter0_d_425_129" x="991.54" y="177.106" width="173.46" height="117.054" filterUnits="userSpaceOnUse" color-interpolation-filters="sRGB">
<feFlood flood-opacity="0" result="BackgroundImageFix"/>
<feColorMatrix in="SourceAlpha" type="matrix" values="0 0 0 0 0 0 0 0 0 0 0 0 0 0 0 0 0 0 127 0" result="hardAlpha"/>
<feOffset dx="3" dy="4"/>
<feGaussianBlur stdDeviation="1.75"/>
<feComposite in2="hardAlpha" operator="out"/>
<feColorMatrix type="matrix" values="0 0 0 0 0 0 0 0 0 0 0 0 0 0 0 0 0 0 0.31 0"/>
<feBlend mode="normal" in2="BackgroundImageFix" result="effect1_dropShadow_425_129"/>
<feBlend mode="normal" in="SourceGraphic" in2="effect1_dropShadow_425_129" result="shape"/>
</filter>
<filter id="filter1_d_425_129" x="890.503" y="177.106" width="119.457" height="117.054" filterUnits="userSpaceOnUse" color-interpolation-filters="sRGB">
<feFlood flood-opacity="0" result="BackgroundImageFix"/>
<feColorMatrix in="SourceAlpha" type="matrix" values="0 0 0 0 0 0 0 0 0 0 0 0 0 0 0 0 0 0 127 0" result="hardAlpha"/>
<feOffset dx="3" dy="4"/>
<feGaussianBlur stdDeviation="1.75"/>
<feComposite in2="hardAlpha" operator="out"/>
<feColorMatrix type="matrix" values="0 0 0 0 0 0 0 0 0 0 0 0 0 0 0 0 0 0 0.31 0"/>
<feBlend mode="normal" in2="BackgroundImageFix" result="effect1_dropShadow_425_129"/>
<feBlend mode="normal" in="SourceGraphic" in2="effect1_dropShadow_425_129" result="shape"/>
</filter>
<filter id="filter2_d_425_129" x="752.883" y="85.1655" width="198.623" height="208.994" filterUnits="userSpaceOnUse" color-interpolation-filters="sRGB">
<feFlood flood-opacity="0" result="BackgroundImageFix"/>
<feColorMatrix in="SourceAlpha" type="matrix" values="0 0 0 0 0 0 0 0 0 0 0 0 0 0 0 0 0 0 127 0" result="hardAlpha"/>
<feOffset dx="3" dy="4"/>
<feGaussianBlur stdDeviation="1.75"/>
<feComposite in2="hardAlpha" operator="out"/>
<feColorMatrix type="matrix" values="0 0 0 0 0 0 0 0 0 0 0 0 0 0 0 0 0 0 0.31 0"/>
<feBlend mode="normal" in2="BackgroundImageFix" result="effect1_dropShadow_425_129"/>
<feBlend mode="normal" in="SourceGraphic" in2="effect1_dropShadow_425_129" result="shape"/>
</filter>
<filter id="filter3_d_425_129" x="647.006" y="177.106" width="128.748" height="115.312" filterUnits="userSpaceOnUse" color-interpolation-filters="sRGB">
<feFlood flood-opacity="0" result="BackgroundImageFix"/>
<feColorMatrix in="SourceAlpha" type="matrix" values="0 0 0 0 0 0 0 0 0 0 0 0 0 0 0 0 0 0 127 0" result="hardAlpha"/>
<feOffset dx="3" dy="4"/>
<feGaussianBlur stdDeviation="1.75"/>
<feComposite in2="hardAlpha" operator="out"/>
<feColorMatrix type="matrix" values="0 0 0 0 0 0 0 0 0 0 0 0 0 0 0 0 0 0 0.31 0"/>
<feBlend mode="normal" in2="BackgroundImageFix" result="effect1_dropShadow_425_129"/>
<feBlend mode="normal" in="SourceGraphic" in2="effect1_dropShadow_425_129" result="shape"/>
</filter>
<filter id="filter4_d_425_129" x="505.902" y="177.106" width="158.943" height="117.054" filterUnits="userSpaceOnUse" color-interpolation-filters="sRGB">
<feFlood flood-opacity="0" result="BackgroundImageFix"/>
<feColorMatrix in="SourceAlpha" type="matrix" values="0 0 0 0 0 0 0 0 0 0 0 0 0 0 0 0 0 0 127 0" result="hardAlpha"/>
<feOffset dx="3" dy="4"/>
<feGaussianBlur stdDeviation="1.75"/>
<feComposite in2="hardAlpha" operator="out"/>
<feColorMatrix type="matrix" values="0 0 0 0 0 0 0 0 0 0 0 0 0 0 0 0 0 0 0.31 0"/>
<feBlend mode="normal" in2="BackgroundImageFix" result="effect1_dropShadow_425_129"/>
<feBlend mode="normal" in="SourceGraphic" in2="effect1_dropShadow_425_129" result="shape"/>
</filter>
<filter id="filter5_d_425_129" x="215.758" y="0" width="347.082" height="370.615" filterUnits="userSpaceOnUse" color-interpolation-filters="sRGB">
<feFlood flood-opacity="0" result="BackgroundImageFix"/>
<feColorMatrix in="SourceAlpha" type="matrix" values="0 0 0 0 0 0 0 0 0 0 0 0 0 0 0 0 0 0 127 0" result="hardAlpha"/>
<feOffset dx="3" dy="4"/>
<feGaussianBlur stdDeviation="1.75"/>
<feComposite in2="hardAlpha" operator="out"/>
<feColorMatrix type="matrix" values="0 0 0 0 0 0 0 0 0 0 0 0 0 0 0 0 0 0 0.31 0"/>
<feBlend mode="normal" in2="BackgroundImageFix" result="effect1_dropShadow_425_129"/>
<feBlend mode="normal" in="SourceGraphic" in2="effect1_dropShadow_425_129" result="shape"/>
</filter>
<filter id="filter6_d_425_129" x="176.326" y="101.805" width="66.6737" height="82.3423" filterUnits="userSpaceOnUse" color-interpolation-filters="sRGB">
<feFlood flood-opacity="0" result="BackgroundImageFix"/>
<feColorMatrix in="SourceAlpha" type="matrix" values="0 0 0 0 0 0 0 0 0 0 0 0 0 0 0 0 0 0 127 0" result="hardAlpha"/>
<feOffset dx="3" dy="4"/>
<feGaussianBlur stdDeviation="1.75"/>
<feComposite in2="hardAlpha" operator="out"/>
<feColorMatrix type="matrix" values="0 0 0 0 0 0 0 0 0 0 0 0 0 0 0 0 0 0 0.31 0"/>
<feBlend mode="normal" in2="BackgroundImageFix" result="effect1_dropShadow_425_129"/>
<feBlend mode="normal" in="SourceGraphic" in2="effect1_dropShadow_425_129" result="shape"/>
</filter>
<filter id="filter7_d_425_129" x="92.629" y="65" width="83.8444" height="116.992" filterUnits="userSpaceOnUse" color-interpolation-filters="sRGB">
<feFlood flood-opacity="0" result="BackgroundImageFix"/>
<feColorMatrix in="SourceAlpha" type="matrix" values="0 0 0 0 0 0 0 0 0 0 0 0 0 0 0 0 0 0 127 0" result="hardAlpha"/>
<feOffset dx="3" dy="4"/>
<feGaussianBlur stdDeviation="1.75"/>
<feComposite in2="hardAlpha" operator="out"/>
<feColorMatrix type="matrix" values="0 0 0 0 0 0 0 0 0 0 0 0 0 0 0 0 0 0 0.31 0"/>
<feBlend mode="normal" in2="BackgroundImageFix" result="effect1_dropShadow_425_129"/>
<feBlend mode="normal" in="SourceGraphic" in2="effect1_dropShadow_425_129" result="shape"/>
</filter>
<filter id="filter8_d_425_129" x="0" y="70.0815" width="94.6241" height="111.91" filterUnits="userSpaceOnUse" color-interpolation-filters="sRGB">
<feFlood flood-opacity="0" result="BackgroundImageFix"/>
<feColorMatrix in="SourceAlpha" type="matrix" values="0 0 0 0 0 0 0 0 0 0 0 0 0 0 0 0 0 0 127 0" result="hardAlpha"/>
<feOffset dx="3" dy="4"/>
<feGaussianBlur stdDeviation="1.75"/>
<feComposite in2="hardAlpha" operator="out"/>
<feColorMatrix type="matrix" values="0 0 0 0 0 0 0 0 0 0 0 0 0 0 0 0 0 0 0.31 0"/>
<feBlend mode="normal" in2="BackgroundImageFix" result="effect1_dropShadow_425_129"/>
<feBlend mode="normal" in="SourceGraphic" in2="effect1_dropShadow_425_129" result="shape"/>
</filter>
</defs>
</svg>
